<?xml version="1.0" encoding="UTF-8"?>
<svg id="Camada_1" data-name="Camada 1" xmlns="http://www.w3.org/2000/svg" viewBox="0 0 300 300">
  <defs>
    <style>
      .cls-1 {
        fill: #dedfda;
        stroke-width: 0px;
      }
    </style>
  </defs>
  <g>
    <path class="cls-1" d="M151.81,51.18l53.38,53.38-53.38,53.38-53.38-53.38,53.38-53.38ZM114.4,104.57l37.41,37.41,37.41-37.41-37.41-37.41-37.41,37.41Z"/>
    <path class="cls-1" d="M100.03,104.57l51.79-51.79,51.79,51.79-51.79,51.79-51.79-51.79ZM151.81,65.56l-39.01,39.01,39.01,39.01,39.01-39.01-39.01-39.01Z"/>
  </g>
  <rect class="cls-1" x="139.72" y="92.47" width="24.19" height="24.19" transform="translate(-29.47 137.98) rotate(-45)"/>
  <rect class="cls-1" x="139.72" y="184.07" width="24.19" height="24.19" transform="translate(-94.24 164.8) rotate(-45)"/>
  <path class="cls-1" d="M79.92,149.74l26-26,26,26-26,26-26-26ZM105.91,141.4l-8.34,8.34,8.34,8.34,8.34-8.34-8.34-8.34Z"/>
  <path class="cls-1" d="M170.09,149.74l26-26,26,26-26,26-26-26ZM196.09,141.4l-8.34,8.34,8.34,8.34,8.34-8.34-8.34-8.34Z"/>
  <g>
    <path class="cls-1" d="M151.81,142.18l53.38,53.38-53.38,53.38-53.38-53.38,53.38-53.38ZM114.4,195.56l37.41,37.41,37.41-37.41-37.41-37.41-37.41,37.41Z"/>
    <path class="cls-1" d="M100.03,195.56l51.79-51.79,51.79,51.79-51.79,51.79-51.79-51.79ZM151.81,156.56l-39.01,39.01,39.01,39.01,39.01-39.01-39.01-39.01Z"/>
  </g>
</svg>